<svg xmlns="http://www.w3.org/2000/svg" width="776" height="628.999" viewBox="0 0 776 628.999">
  <g id="Group_41" data-name="Group 41" transform="translate(-187.624 -122.244)">
    <path id="Path_1" data-name="Path 1" d="M223.437,516.607H405.471c23.02,0-9.582-15.217-16.91-4.8,0-12.268-9.959-19.079-22.242-19.079a22.154,22.154,0,0,0-7.059,1.163,22.036,22.036,0,0,0-34.337-23.779,35.644,35.644,0,1,0-69.987-2.39,19.125,19.125,0,0,0-25.662,25.555,12.794,12.794,0,0,0-16.5,12.233C212.772,510.265,217.343,516.607,223.437,516.607Z" fill="#fff" opacity="0.2"/>
    <path id="Path_2" data-name="Path 2" d="M913.428,258.023a11.009,11.009,0,0,0-7.207,2.682,12.4,12.4,0,0,0-18.25-13.458,31.049,31.049,0,0,0,.353-4.674,30.725,30.725,0,0,0-61.286-3.14,10.313,10.313,0,0,0-16.358,10.515,8.72,8.72,0,0,0-13.315,11.041,13.732,13.732,0,0,0-3.849-.551c-7.039,0-12.593,6.3-7.25,6.3H921.115C925.118,266.742,920.908,258.023,913.428,258.023Z" fill="#fff" opacity="0.2"/>
    <path id="Path_3" data-name="Path 3" d="M946.806,571.593a11,11,0,0,0-7.207,2.68,12.4,12.4,0,0,0-18.252-13.458A30.724,30.724,0,1,0,860.416,553a10.313,10.313,0,0,0-16.358,10.515,8.719,8.719,0,0,0-13.315,11.039,13.734,13.734,0,0,0-3.851-.551c-7.038,0-12.593,6.306-7.248,6.306H954.491C958.494,580.312,954.286,571.593,946.806,571.593Z" fill="#fff" opacity="0.2"/>
    <path id="Path_4" data-name="Path 4" d="M587.122,156.482H532.029a7.818,7.818,0,0,1,4.98-13.854,7.725,7.725,0,0,1,1.449.14,17.768,17.768,0,0,1,35.08-5.672,11.855,11.855,0,1,1,13.584,19.385Z" fill="#fff" opacity="0.2"/>
    <g id="Group_2" data-name="Group 2">
      <path id="Path_5" data-name="Path 5" d="M260.729,603.684V562.963H421.606V723.314H260.729V700.031" fill="none" stroke="#8fc4e6" stroke-linecap="round" stroke-linejoin="round" stroke-width="1.949"/>
      <line id="Line_1" data-name="Line 1" y2="38.346" transform="translate(260.729 655.303)" fill="none" stroke="#8fc4e6" stroke-linecap="round" stroke-linejoin="round" stroke-width="1.948"/>
      <line id="Line_2" data-name="Line 2" y2="5.104" transform="translate(260.729 641.102)" fill="none" stroke="#8fc4e6" stroke-linecap="round" stroke-linejoin="round" stroke-width="1.948"/>
      <g id="Group_1" data-name="Group 1">
        <rect id="Rectangle_1" data-name="Rectangle 1" width="25.242" height="49.734" transform="translate(387.004 609.114)" fill="#0964af" opacity="0.25"/>
        <rect id="Rectangle_2" data-name="Rectangle 2" width="138.767" height="16.89" transform="translate(273.479 582.271)" fill="#0964af" opacity="0.25"/>
        <rect id="Rectangle_3" data-name="Rectangle 3" width="107.323" height="8.078" transform="translate(274.621 609.114)" fill="#0964af" opacity="0.25"/>
        <rect id="Rectangle_4" data-name="Rectangle 4" width="107.323" height="8.078" transform="translate(274.621 629.942)" fill="#0964af" opacity="0.25"/>
        <rect id="Rectangle_5" data-name="Rectangle 5" width="107.323" height="8.078" transform="translate(274.621 650.77)" fill="#0964af" opacity="0.25"/>
        <rect id="Rectangle_6" data-name="Rectangle 6" width="138.197" height="8.078" transform="translate(274.621 671.598)" fill="#0964af" opacity="0.25"/>
        <rect id="Rectangle_7" data-name="Rectangle 7" width="138.197" height="8.078" transform="translate(274.621 692.426)" fill="#0964af" opacity="0.25"/>
      </g>
    </g>
    <g id="Group_4" data-name="Group 4">
      <path id="Path_6" data-name="Path 6" d="M632.5,224.362V179.288H810.573V356.779H632.5V331.007" fill="none" stroke="#8fc4e6" stroke-linecap="round" stroke-linejoin="round" stroke-width="1.949"/>
      <line id="Line_3" data-name="Line 3" y2="42.444" transform="translate(632.5 281.498)" fill="none" stroke="#8fc4e6" stroke-linecap="round" stroke-linejoin="round" stroke-width="1.948"/>
      <line id="Line_4" data-name="Line 4" y2="5.649" transform="translate(632.5 265.779)" fill="none" stroke="#8fc4e6" stroke-linecap="round" stroke-linejoin="round" stroke-width="1.948"/>
      <g id="Group_3" data-name="Group 3">
        <rect id="Rectangle_8" data-name="Rectangle 8" width="27.94" height="55.05" transform="translate(772.273 230.373)" fill="#0964af" opacity="0.25"/>
        <rect id="Rectangle_9" data-name="Rectangle 9" width="153.599" height="18.695" transform="translate(646.614 200.661)" fill="#0964af" opacity="0.25"/>
        <rect id="Rectangle_10" data-name="Rectangle 10" width="118.794" height="8.942" transform="translate(647.877 230.373)" fill="#0964af" opacity="0.25"/>
        <rect id="Rectangle_11" data-name="Rectangle 11" width="118.794" height="8.942" transform="translate(647.877 253.427)" fill="#0964af" opacity="0.25"/>
        <rect id="Rectangle_12" data-name="Rectangle 12" width="118.794" height="8.942" transform="translate(647.877 276.481)" fill="#0964af" opacity="0.25"/>
        <rect id="Rectangle_13" data-name="Rectangle 13" width="152.969" height="8.942" transform="translate(647.877 299.535)" fill="#0964af" opacity="0.25"/>
        <rect id="Rectangle_14" data-name="Rectangle 14" width="152.969" height="8.942" transform="translate(647.877 322.59)" fill="#0964af" opacity="0.25"/>
      </g>
    </g>
    <path id="Path_7" data-name="Path 7" d="M354.672,286.353h89.171a12.648,12.648,0,0,0-10.407-22.2,28.759,28.759,0,0,0-56.78-9.179,19.189,19.189,0,1,0-21.984,31.377Z" fill="#fff" opacity="0.2"/>
    <g id="Group_10" data-name="Group 10">
      <path id="Path_8" data-name="Path 8" d="M715.971,633.627,728.8,721.2s10.177,13.725,48.543,13.725S825.886,721.2,825.886,721.2l12.831-87.57Z" fill="#0e67aa"/>
      <path id="Path_9" data-name="Path 9" d="M777.345,681.279c22.593,0,42.671-2.844,55.454-7.251l5.731-39.119H716.158l5.731,39.119C734.671,678.435,754.75,681.279,777.345,681.279Z" fill="#1d3f72"/>
      <path id="Path_10" data-name="Path 10" d="M847.259,653.8c0,10.235-31.3,18.532-69.915,18.532s-69.917-8.3-69.917-18.532l-3.362-27.838H850.621Z" fill="#0e67aa"/>
      <ellipse id="Ellipse_1" data-name="Ellipse 1" cx="73.278" cy="19.423" rx="73.278" ry="19.423" transform="translate(704.066 606.54)" fill="#4193b7"/>
      <ellipse id="Ellipse_2" data-name="Ellipse 2" cx="65.522" cy="14.642" rx="65.522" ry="14.642" transform="translate(711.822 610.957)" fill="#1c538e"/>
      <path id="Path_11" data-name="Path 11" d="M714.82,629.989c8.346-5.942,33.181-10.252,62.524-10.252s54.176,4.31,62.522,10.252c1.946-1.387,3-2.861,3-4.39,0-8.087-29.336-14.642-65.521-14.642s-65.523,6.556-65.523,14.642C711.821,627.128,712.874,628.6,714.82,629.989Z" fill="#0d2644"/>
      <g id="Group_5" data-name="Group 5">
        <path id="Path_12" data-name="Path 12" d="M828.957,509.32c4.731-17-1.018-30.418-7.268-45.583s-7.295-31.256-4.9-47.205c3.2-21.646,10.393-42.55,2.094-63.532-7.777-19.813-15.288-45.92-36.743-54.269-20.859-8.9-36.64,11.647-36.287,30.576s11.111,36,5.737,54.69c-4.087,15.3-9.438,33.422-1.447,48.086,9.567,18.168,27.393,30.952,20.728,53.025-2.629,7.915-6.926,14.611-7.835,22.6-1.078,11.992,4.992,14.937,10.446,24.509,22.965,40.313-19.1,56.566-2.6,100.844a3.031,3.031,0,0,0,2.987,1.983h0a2.979,2.979,0,0,0,2.822-2.623c5.253-49.517,40.591-32.444,40.959-72.56.068-7.465-2.239-14.995-1.353-22.41C817.353,526.029,826.209,520.1,828.957,509.32Z" fill="#15ccbe"/>
        <path id="Path_13" data-name="Path 13" d="M782.042,524.325s1.966,22.678,18.542,25.481" fill="none" stroke="#7defe9" stroke-linecap="round" stroke-linejoin="round" stroke-width="1.949"/>
        <path id="Path_14" data-name="Path 14" d="M766.2,414.616s1.182,25.308,22.464,32.181" fill="none" stroke="#7defe9" stroke-linecap="round" stroke-linejoin="round" stroke-width="1.949"/>
        <path id="Path_15" data-name="Path 15" d="M813.507,380.2s-1,26.35-21.727,30.337" fill="none" stroke="#7defe9" stroke-linecap="round" stroke-linejoin="round" stroke-width="1.949"/>
        <path id="Path_16" data-name="Path 16" d="M812.844,462.513s4.974,28.815-11.811,36.189" fill="none" stroke="#7defe9" stroke-linecap="round" stroke-linejoin="round" stroke-width="1.949"/>
        <path id="Path_17" data-name="Path 17" d="M808.476,559.422s0,26.245-26.434,28.9" fill="none" stroke="#7defe9" stroke-linecap="round" stroke-linejoin="round" stroke-width="1.949"/>
        <path id="Path_18" data-name="Path 18" d="M775.475,343.55s1.96,26.517,17.741,30.968" fill="none" stroke="#7defe9" stroke-linecap="round" stroke-linejoin="round" stroke-width="1.949"/>
        <path id="Path_19" data-name="Path 19" d="M777.345,325.32c18.207,17.99,16.7,58.737,15.339,77.594-1.15,13.708-8.461,45.591-.031,68.777,8.917,24.529,16.939,50.7,6.786,84.448-7.088,23.563-30.135,35.011-25.523,77.982" fill="none" stroke="#7defe9" stroke-linecap="round" stroke-linejoin="round" stroke-width="1.949"/>
        <path id="Path_20" data-name="Path 20" d="M817.6,557.6c.035.752.058,1.505.051,2.255-.242,26.332-15.551,28.023-27.53,40.083,1.4-7.027,1.737-15.723,6.435-21.459,5.162-5.726,12.041-6.871,17.2-13.745A26.9,26.9,0,0,0,817.6,557.6Zm4.087-93.865c-6.248-15.164-7.295-31.256-4.9-47.205q.348-2.355.753-4.7a33.711,33.711,0,0,0-18.566,17.439c-11.606,24.593-2.463,41.28,7.523,59.884,8.149,15.182,2.866,29.2,4.586,45.24.72,6.7,3.641,11.906,5.92,16.9-.577-4.633-1.252-9.267-.7-13.856,1.053-11.419,9.91-17.352,12.657-28.128C833.688,492.325,827.939,478.9,821.689,463.738ZM778.365,592.561c-1.622-3.48-3.563-7.245-3.9-11.055-5.24,13.717-11.07,27.916-4.815,47.941.016.053.035.107.051.16.357,1.133.745,2.281,1.182,3.451a3.125,3.125,0,0,0,.335.635c.023.035.045.068.068.1a3.02,3.02,0,0,0,.478.518l.033.027a2.994,2.994,0,0,0,2.073.7h0a3.027,3.027,0,0,0,1.572-.547,2.894,2.894,0,0,0,1.213-1.9c.01-.06.029-.119.037-.181a68.965,68.965,0,0,1,4.136-18.088c-1.088.705-2.2,1.361-3.305,2.053C781.067,608.358,783.514,603.61,778.365,592.561Z" fill="#15ccbe" opacity="0.75"/>
      </g>
      <g id="Group_7" data-name="Group 7">
        <path id="Path_21" data-name="Path 21" d="M882.966,500.513c-10.321-18.9-10.294-31.4-9.175-51.539,1.147-20.616-5.16-48.1-30.387-52.684-18.921-3.436-34.31,4.228-41.349,19.143-11.606,24.591-2.463,41.279,7.523,59.882,8.149,15.184,2.866,29.2,4.586,45.24s16.054,23.479,4.013,40.085c-5.16,6.873-12.039,8.018-17.2,13.745-5.162,6.3-5.05,16.171-6.881,23.479-4.621,18.458-22.717,15.84-23.472,34.547-.057,1.395,1.074,2.787,2.059,2.74s1.765.138,2.461-1.1c4.245-7.532,11.253-6.371,19.1-9.845,5.832-2.581,7.622-9.764,21.635-11.452,18.295-2.207,34.975,9.734,44.148-14.89,3.44-8.589,2.293-16.035,4.013-24.624,1.72-11.452,9.173-18.325,16.628-26.342C893.858,532.009,892.138,517.121,882.966,500.513Z" fill="#17ddd8"/>
        <g id="Group_6" data-name="Group 6">
          <path id="Path_22" data-name="Path 22" d="M817.819,441.729s12.018,21.27,28.848,22.708" fill="none" stroke="#6cefe8" stroke-linecap="round" stroke-linejoin="round" stroke-width="1.949"/>
          <path id="Path_23" data-name="Path 23" d="M830.449,507.68s-.934,38.3,11.316,46.426" fill="none" stroke="#6cefe8" stroke-linecap="round" stroke-linejoin="round" stroke-width="1.949"/>
          <path id="Path_24" data-name="Path 24" d="M870.248,482.007s-1.394,32.921-22.062,38.708" fill="none" stroke="#6cefe8" stroke-linecap="round" stroke-linejoin="round" stroke-width="1.949"/>
          <path id="Path_25" data-name="Path 25" d="M853.4,576.286s-10.53,31.667-40.552,26.547" fill="none" stroke="#6cefe8" stroke-linecap="round" stroke-linejoin="round" stroke-width="1.949"/>
          <path id="Path_26" data-name="Path 26" d="M849.069,412.362s8.656,25.01-4.333,36.881" fill="none" stroke="#6cefe8" stroke-linecap="round" stroke-linejoin="round" stroke-width="1.949"/>
          <path id="Path_27" data-name="Path 27" d="M772.883,633.368c2.806-10.307,18.012-14.111,22.364-16.937,48.473-31.478,67.446-92.5,43.469-195.774" fill="none" stroke="#6cefe8" stroke-linecap="round" stroke-linejoin="round" stroke-width="1.949"/>
        </g>
        <path id="Path_28" data-name="Path 28" d="M770.625,632.412c-.057,1.395,1.074,2.787,2.059,2.74.051,0,.1,0,.148,0,3.079-2.32-.811-5.627,3.859-16.567A18.767,18.767,0,0,0,770.625,632.412Z" fill="#15ccbe" opacity="0.75"/>
      </g>
      <g id="Group_9" data-name="Group 9">
        <path id="Path_29" data-name="Path 29" d="M774.079,587.088c-5.688-12.2-.322-27.9-5.916-36.8-6.85-11.139-18.3-2.668-31.59-17.977-11.156-12.847-3.124-30.652-28.518-43.922-7.753-4.051-16.745-2.063-19.767,6.682-3.623,8.2,2.108,19.965,4.785,27.863,2.607,6.717,5.7,11.711,4.393,19.163-.014.078-.031.16-.051.236-1.464,5.728-5.271,8.784-3.237,15.521,4.235,16.423,27.528,14.946,39.284,25.183,8.289,7.22.809,15.84,8.933,26.769,8.044,10.823,12.16-.948,26.639,24.673a1.919,1.919,0,0,0,2.615.723h0a1.914,1.914,0,0,0,.961-1.807C770.512,605.675,782.45,605.049,774.079,587.088Z" fill="#17ddd8"/>
        <g id="Group_8" data-name="Group 8">
          <path id="Path_30" data-name="Path 30" d="M696.044,507.975s1.385,12.681,13.41,16.643" fill="none" stroke="#6cefe8" stroke-linecap="round" stroke-linejoin="round" stroke-width="1.949"/>
          <path id="Path_31" data-name="Path 31" d="M702.748,543.893s12.07,13.924,27.054,8.322" fill="none" stroke="#6cefe8" stroke-linecap="round" stroke-linejoin="round" stroke-width="1.949"/>
          <path id="Path_32" data-name="Path 32" d="M747.465,544.709s9.067,15.007,2.354,21.968" fill="none" stroke="#6cefe8" stroke-linecap="round" stroke-linejoin="round" stroke-width="1.949"/>
          <path id="Path_33" data-name="Path 33" d="M761.417,573.055s5.4,18.522-3.953,25.333" fill="none" stroke="#6cefe8" stroke-linecap="round" stroke-linejoin="round" stroke-width="1.949"/>
          <path id="Path_34" data-name="Path 34" d="M718.793,516.295s7.845,19.352,1.133,26.313" fill="none" stroke="#6cefe8" stroke-linecap="round" stroke-linejoin="round" stroke-width="1.949"/>
          <path id="Path_35" data-name="Path 35" d="M729.8,571.756s6.979,11.781,26.73,10.6" fill="none" stroke="#6cefe8" stroke-linecap="round" stroke-linejoin="round" stroke-width="1.949"/>
          <path id="Path_36" data-name="Path 36" d="M743.167,596.924s1.931,11.9,21.327,14.685" fill="none" stroke="#6cefe8" stroke-linecap="round" stroke-linejoin="round" stroke-width="1.949"/>
          <path id="Path_37" data-name="Path 37" d="M770.512,634.36c-.778-25.226-14.235-27.361-13.79-42.284.349-11.635-.051-22.7-14.235-31.166-24.344-14.533-34.5-29.723-39.436-61.916" fill="none" stroke="#6cefe8" stroke-linecap="round" stroke-linejoin="round" stroke-width="1.949"/>
        </g>
      </g>
    </g>
    <g id="Group_11" data-name="Group 11">
      <path id="Path_38" data-name="Path 38" d="M669.674,322.769c-2.381,25.294,16.433,39.892,24.833,61.228l30.556-18.608c-15.781-16.674-38.711-19.776-45.973-44.128" fill="#628cd2"/>
      <path id="Path_39" data-name="Path 39" d="M705.893,364.91c-19.361,7.236-61.9,12.356-81.864,17.18h0c0,14.167,8.168,25.623,15.128,37.379a397.159,397.159,0,0,1,19.059,35.27c1.513,3.619,7.26,21.4,10.286,23.816,13.515-3.477,29.345-9.345,42.356-19.293,20.27-15.375,35.981-32.263,42.032-56.982L740.853,384l-11.189-14.642-15.688-7.814H708.1Z" fill="#628cd2"/>
      <path id="Path_40" data-name="Path 40" d="M733.219,418.122s1.145-8.252-3.765,1.926c-3.348,13.635-30.724,43.248-54.847,50.164A9.143,9.143,0,0,0,671,477.87c12.946-3.543,27.637-9.259,39.862-18.608,9.426-7.15,17.848-14.642,24.79-23.084C734.443,427.242,733.219,418.122,733.219,418.122Z" fill="#628cd2" opacity="0.25"/>
      <path id="Path_41" data-name="Path 41" d="M719.922,489.121c.852,5.356-1.825,5.3-2.687,9.039-1,4.326-2.828,9.183,1.275,11.32.634.329,1.878-.177,1.088-1.751.47.129,2.459,1.706,3.011,1.813,2.145.411,3.865.991,4.514-2.113,2.33-2.074,3.163-5.833,2.541-8.934-.671-2.678-2.687-3.348-2.687-6.361s2.687-7.029,3.7-10.042" fill="#ffb67e"/>
      <path id="Path_42" data-name="Path 42" d="M729.036,416.885c4.811,34.954.628,51.817-11.8,71.568,1.246,4.24,7.006,5.079,12.094,3.3,53.416-60.759,20.586-111.641,5.292-118.676" fill="#628cd2"/>
      <path id="Path_43" data-name="Path 43" d="M740.6,377.359c15.19,16.411,32.21,61-13.627,113.137a10.232,10.232,0,0,1-4.124,2.049,14.47,14.47,0,0,0,6.48-.795C776.442,438.159,756.462,392.272,740.6,377.359Z" fill="#628cd2" opacity="0.25"/>
      <path id="Path_44" data-name="Path 44" d="M722.429,342.757a144.585,144.585,0,0,1-3.288,18.423c-2.053,6.55-6.573,12.691-2.053,18.421,11.091,15.147,37.385-4.5,37.385-18.83" fill="#ffb67e"/>
      <path id="Path_45" data-name="Path 45" d="M727.4,360.937c-1.1,2.766-4.134,2.668-4.581,3.665s.967,2.721,1.4,4.353" fill="none" stroke="#ffb67e" stroke-miterlimit="10" stroke-width="0.974"/>
      <path id="Path_46" data-name="Path 46" d="M758.761,349.169c1.78-4.844,3.251-10.256-2.554-14.551-15.354-11.361-24.461-2.183-29.207-2.183-2.192-.364-6.49-8.889-8.763,1.819-4.015,18.918,13.874,30.194,29.938,24.009.365,4.367-4.746,8.367-4.382,11.641.731,4.731,6.878,4.984,10.222,3.276C762.034,369.082,769.35,348.8,758.761,349.169Z" fill="#1b3760"/>
      <path id="Path_47" data-name="Path 47" d="M719.346,507.258c.012-.066-.7-1.735-.127-2.357a3.062,3.062,0,0,1,3.1-.358c1.152.442,1.445,1.7,1.761,2.886" fill="none" stroke="#e88949" stroke-miterlimit="10" stroke-width="0.487"/>
      <path id="Path_48" data-name="Path 48" d="M725.079,502.543c1.152.444,2.3,2.857,2,4.715" fill="none" stroke="#e88949" stroke-miterlimit="10" stroke-width="0.487"/>
      <path id="Path_49" data-name="Path 49" d="M721.544,506.029c.259.012.521.021.78.031a1.8,1.8,0,0,0,1.135-.2" fill="none" stroke="#e88949" stroke-miterlimit="10" stroke-width="0.487"/>
      <path id="Path_50" data-name="Path 50" d="M761.7,349.829a6.235,6.235,0,0,1,1.32,4.38c-.174,4.887-3.945,12.181-9.062,11.326a3.672,3.672,0,0,1-2.779-3.621c-.041-1.663,2.01-9.261.84-9.105-3.76.5-17.618,7.181-32.167-4.037,4.84,9.524,17.018,13.844,28.324,9.491.365,4.367-4.746,8.367-4.382,11.641.731,4.731,6.878,4.984,10.222,3.276C761.113,369.551,767.636,353.271,761.7,349.829Z" fill="#1b3760" opacity="0.55"/>
    </g>
    <g id="Group_17" data-name="Group 17">
      <g id="Group_12" data-name="Group 12">
        <path id="Path_51" data-name="Path 51" d="M943.5,485.294a4.295,4.295,0,1,1,5.534,2.5A4.289,4.289,0,0,1,943.5,485.294Z" fill="#8fc4e6"/>
      </g>
      <g id="Group_13" data-name="Group 13">
        <path id="Path_52" data-name="Path 52" d="M917.3,491.353a4.295,4.295,0,1,1,5.534,2.5A4.29,4.29,0,0,1,917.3,491.353Z" fill="#8fc4e6"/>
      </g>
      <g id="Group_14" data-name="Group 14">
        <path id="Path_53" data-name="Path 53" d="M949.234,463.531a2.881,2.881,0,1,1,3.711,1.679A2.878,2.878,0,0,1,949.234,463.531Z" fill="#8fc4e6"/>
      </g>
      <g id="Group_15" data-name="Group 15">
        <rect id="Rectangle_15" data-name="Rectangle 15" width="18.596" height="1.292" transform="matrix(0.971, -0.24, 0.24, 0.971, 925.291, 489.124)" fill="#8fc4e6"/>
      </g>
      <g id="Group_16" data-name="Group 16">
        <rect id="Rectangle_16" data-name="Rectangle 16" width="15.921" height="1.294" transform="matrix(0.197, -0.98, 0.98, 0.197, 947.898, 479.486)" fill="#8fc4e6"/>
      </g>
    </g>
    <g id="Group_23" data-name="Group 23">
      <g id="Group_18" data-name="Group 18">
        <path id="Path_54" data-name="Path 54" d="M255.282,407.248a3.949,3.949,0,1,1-.665,5.543A3.955,3.955,0,0,1,255.282,407.248Z" fill="#8fc4e6"/>
      </g>
      <g id="Group_19" data-name="Group 19">
        <path id="Path_55" data-name="Path 55" d="M242.693,385.976a3.949,3.949,0,1,1-.665,5.543A3.955,3.955,0,0,1,242.693,385.976Z" fill="#8fc4e6"/>
      </g>
      <g id="Group_20" data-name="Group 20">
        <path id="Path_56" data-name="Path 56" d="M275.985,406.233a2.648,2.648,0,1,1-.445,3.718A2.654,2.654,0,0,1,275.985,406.233Z" fill="#8fc4e6"/>
      </g>
      <g id="Group_21" data-name="Group 21">
        <rect id="Rectangle_17" data-name="Rectangle 17" width="1.588" height="17.096" transform="matrix(0.854, -0.521, 0.522, 0.853, 245.682, 393.077)" fill="#8fc4e6"/>
      </g>
      <g id="Group_22" data-name="Group 22">
        <rect id="Rectangle_18" data-name="Rectangle 18" width="14.664" height="1.586" transform="matrix(0.994, -0.107, 0.108, 0.994, 261.581, 409.287)" fill="#8fc4e6"/>
      </g>
    </g>
    <rect id="Rectangle_19" data-name="Rectangle 19" width="57.65" height="57.581" rx="9.32" transform="translate(863.206 304.704)" fill="#8fc4e6"/>
    <path id="Rectangle_20" data-name="Rectangle 20" d="M3.5,0h14.63a3.5,3.5,0,0,1,3.5,3.5V18.1a3.5,3.5,0,0,1-3.5,3.5H3.5A3.5,3.5,0,0,1,0,18.1V3.5A3.5,3.5,0,0,1,3.5,0Z" transform="translate(942.003 350.661)" fill="#8fc4e6"/>
    <path id="Path_57" data-name="Path 57" d="M281.5,222.291l3.1-3.1a1.21,1.21,0,0,0-1.712-1.71l-3.1,3.1-3.1-3.1a1.21,1.21,0,1,0-1.712,1.71l3.1,3.1-3.1,3.1a1.209,1.209,0,0,0,1.712,1.708l3.1-3.1,3.1,3.1a1.209,1.209,0,1,0,1.712-1.708Z" fill="#fff" opacity="0.2"/>
    <path id="Path_58" data-name="Path 58" d="M194.5,372.256l3.1-3.1a1.21,1.21,0,0,0-1.712-1.71l-3.1,3.1-3.1-3.1a1.21,1.21,0,0,0-1.712,1.71l3.1,3.1-3.1,3.1a1.21,1.21,0,0,0,1.712,1.71l3.1-3.1,3.1,3.1a1.21,1.21,0,0,0,1.712-1.71Z" fill="#fff" opacity="0.2"/>
    <path id="Path_59" data-name="Path 59" d="M595.082,198.222l3.1-3.1a1.209,1.209,0,0,0-1.71-1.71l-3.1,3.1-3.1-3.1a1.209,1.209,0,0,0-1.71,1.71l3.1,3.1-3.1,3.1a1.209,1.209,0,1,0,1.71,1.708l3.1-3.1,3.1,3.1a1.209,1.209,0,0,0,1.71-1.708Z" fill="#fff" opacity="0.2"/>
    <path id="Path_60" data-name="Path 60" d="M840.429,292.414l3.1-3.1a1.209,1.209,0,0,0-1.71-1.71l-3.1,3.1-3.1-3.1a1.21,1.21,0,0,0-1.712,1.71l3.1,3.1-3.1,3.1a1.21,1.21,0,0,0,1.712,1.71l3.1-3.1,3.1,3.1a1.209,1.209,0,1,0,1.71-1.71Z" fill="#fff" opacity="0.2"/>
    <path id="Path_61" data-name="Path 61" d="M342.879,410.261l3.1-3.1a1.209,1.209,0,1,0-1.712-1.708l-3.1,3.1-3.1-3.1a1.209,1.209,0,0,0-1.712,1.708l3.1,3.1-3.1,3.1a1.21,1.21,0,0,0,1.712,1.71l3.1-3.1,3.1,3.1a1.21,1.21,0,1,0,1.712-1.71Z" fill="#fff" opacity="0.2"/>
    <g id="Group_24" data-name="Group 24" opacity="0.2">
      <path id="Path_62" data-name="Path 62" d="M445.05,168.791a6.327,6.327,0,1,1,6.334-6.328A6.338,6.338,0,0,1,445.05,168.791Zm0-10.237a3.91,3.91,0,1,0,3.914,3.909A3.916,3.916,0,0,0,445.05,158.554Z" fill="#fff"/>
    </g>
    <g id="Group_25" data-name="Group 25" opacity="0.2">
      <path id="Path_63" data-name="Path 63" d="M260.728,349.876a6.327,6.327,0,1,1,6.336-6.326A6.337,6.337,0,0,1,260.728,349.876Zm0-10.235a3.909,3.909,0,1,0,3.914,3.909A3.916,3.916,0,0,0,260.728,339.641Z" fill="#fff"/>
    </g>
    <g id="Group_26" data-name="Group 26" opacity="0.2">
      <path id="Path_64" data-name="Path 64" d="M233.581,563.153a6.327,6.327,0,1,1,6.334-6.328A6.338,6.338,0,0,1,233.581,563.153Zm0-10.237a3.91,3.91,0,1,0,3.914,3.909A3.918,3.918,0,0,0,233.581,552.917Z" fill="#fff"/>
    </g>
    <g id="Group_27" data-name="Group 27" opacity="0.2">
      <path id="Path_65" data-name="Path 65" d="M830.414,169.907a6.327,6.327,0,1,1,6.334-6.328A6.337,6.337,0,0,1,830.414,169.907Zm0-10.237a3.91,3.91,0,1,0,3.914,3.909A3.916,3.916,0,0,0,830.414,159.67Z" fill="#fff"/>
    </g>
    <g id="Group_28" data-name="Group 28" opacity="0.2">
      <path id="Path_66" data-name="Path 66" d="M886.774,399.714a6.327,6.327,0,1,1,6.333-6.326A6.337,6.337,0,0,1,886.774,399.714Zm0-10.237a3.91,3.91,0,1,0,3.914,3.911A3.917,3.917,0,0,0,886.774,389.478Z" fill="#fff"/>
    </g>
    <g id="Group_33" data-name="Group 33">
      <g id="Group_29" data-name="Group 29">
        <rect id="Rectangle_21" data-name="Rectangle 21" width="272.58" height="488.408" rx="15.084" transform="matrix(-1, 0, 0, -1, 686.735, 727.237)" fill="#3679bc"/>
        <rect id="Rectangle_22" data-name="Rectangle 22" width="249.818" height="381.238" transform="matrix(-1, 0, 0, -1, 675.354, 673.652)" fill="#fff"/>
        <rect id="Rectangle_23" data-name="Rectangle 23" width="6.813" height="78.419" rx="1.958" transform="matrix(0, 1, -1, 0, 589.655, 264.627)" fill="#8fc4e6"/>
        <ellipse id="Ellipse_3" data-name="Ellipse 3" cx="15.064" cy="15.046" rx="15.064" ry="15.046" transform="translate(535.381 683.441)" fill="#8fc4e6"/>
      </g>
      <g id="Group_32" data-name="Group 32">
        <g id="Group_30" data-name="Group 30">
          <path id="Path_67" data-name="Path 67" d="M654.408,651.826H448.371a3.387,3.387,0,0,1-3.321-3.451v-32.66l15.73-16.35H654.408a3.388,3.388,0,0,1,3.321,3.451v45.559A3.388,3.388,0,0,1,654.408,651.826Z" fill="#0964af" opacity="0.25"/>
          <path id="Path_68" data-name="Path 68" d="M457.462,615.557H445.05l15.732-16.349v12.9A3.388,3.388,0,0,1,457.462,615.557Z" fill="#0964af" opacity="0.25"/>
        </g>
        <rect id="Rectangle_24" data-name="Rectangle 24" width="53.85" height="100.399" transform="translate(443.162 342.641)" fill="#0964af" opacity="0.25"/>
        <rect id="Rectangle_25" data-name="Rectangle 25" width="85.306" height="77.149" transform="translate(572.422 506.465)" fill="#0964af" opacity="0.25"/>
        <rect id="Rectangle_26" data-name="Rectangle 26" width="52.684" height="52.621" transform="translate(605.044 342.641)" fill="#0964af" opacity="0.25"/>
        <rect id="Rectangle_27" data-name="Rectangle 27" width="153.395" height="17.87" transform="translate(504.333 314.24)" fill="#0964af" opacity="0.25"/>
        <rect id="Rectangle_28" data-name="Rectangle 28" width="88.101" height="8.547" transform="translate(505.27 342.641)" fill="#0964af" opacity="0.25"/>
        <rect id="Rectangle_29" data-name="Rectangle 29" width="88.101" height="8.547" transform="translate(505.27 364.678)" fill="#0964af" opacity="0.25"/>
        <rect id="Rectangle_30" data-name="Rectangle 30" width="88.101" height="8.547" transform="translate(505.27 386.715)" fill="#0964af" opacity="0.25"/>
        <rect id="Rectangle_31" data-name="Rectangle 31" width="152.458" height="8.547" transform="translate(505.27 408.751)" fill="#0964af" opacity="0.25"/>
        <rect id="Rectangle_32" data-name="Rectangle 32" width="152.458" height="8.547" transform="translate(505.27 430.788)" fill="#0964af" opacity="0.25"/>
        <path id="Path_69" data-name="Path 69" d="M454.808,320.055a5.823,5.823,0,1,1-5.823-5.816A5.819,5.819,0,0,1,454.808,320.055Z" fill="#0964af" opacity="0.25"/>
        <path id="Path_70" data-name="Path 70" d="M475.911,320.055a5.823,5.823,0,1,1-5.823-5.816A5.82,5.82,0,0,1,475.911,320.055Z" fill="#0964af" opacity="0.25"/>
        <path id="Path_71" data-name="Path 71" d="M497.013,320.055a5.823,5.823,0,1,1-5.823-5.816A5.819,5.819,0,0,1,497.013,320.055Z" fill="#0964af" opacity="0.25"/>
        <g id="Group_31" data-name="Group 31">
          <rect id="Rectangle_33" data-name="Rectangle 33" width="113.55" height="9.14" transform="matrix(-1, 0, 0, -1, 558.6, 584.315)" fill="#0964af" opacity="0.25"/>
          <rect id="Rectangle_34" data-name="Rectangle 34" width="113.55" height="9.14" transform="matrix(-1, 0, 0, -1, 558.6, 561.396)" fill="#0964af" opacity="0.25"/>
          <rect id="Rectangle_35" data-name="Rectangle 35" width="113.55" height="9.14" transform="matrix(-1, 0, 0, -1, 558.6, 538.477)" fill="#0964af" opacity="0.25"/>
          <rect id="Rectangle_36" data-name="Rectangle 36" width="113.55" height="9.14" transform="matrix(-1, 0, 0, -1, 558.6, 515.558)" fill="#0964af" opacity="0.25"/>
          <rect id="Rectangle_37" data-name="Rectangle 37" width="212.678" height="9.14" transform="matrix(-1, 0, 0, -1, 657.728, 492.64)" fill="#0964af" opacity="0.25"/>
          <rect id="Rectangle_38" data-name="Rectangle 38" width="212.678" height="9.14" transform="matrix(-1, 0, 0, -1, 657.728, 469.721)" fill="#0964af" opacity="0.25"/>
        </g>
      </g>
    </g>
    <g id="Group_34" data-name="Group 34">
      <path id="Path_72" data-name="Path 72" d="M451.2,690.31H363.261l17.492-22.922h87.939Z" fill="#2ab8ea"/>
      <path id="Path_73" data-name="Path 73" d="M451.2,690.31v60.934l17.492-22.922V667.388Z" fill="#2297c6"/>
      <rect id="Rectangle_39" data-name="Rectangle 39" width="87.939" height="60.906" transform="translate(363.261 690.31)" fill="#24abe2"/>
    </g>
    <ellipse id="Ellipse_4" data-name="Ellipse 4" cx="39.457" cy="8.138" rx="39.457" ry="8.138" transform="translate(377.54 671.598)" fill="#2ab8ea" opacity="0.57"/>
    <g id="Group_40" data-name="Group 40">
      <path id="Path_74" data-name="Path 74" d="M437.127,418.118c1.254-3.728,7.16-12.2,5.992-13.949-.259-.39-2.722,2.692-5.031,5.927a54.6,54.6,0,0,0,2.681-5.189c.372-.828.6-2.033-.207-2.444a60.275,60.275,0,0,0-4.69,5.753c.95-1.852,1.515-3.488,1.034-4.154-.388-.538-2.884,2.834-4.953,6.291,1.156-2.386,2.047-4.632,1.486-4.994-.922-.6-7.348,10.712-10.156,18.374-2.12,5.781-5.778,10.385-7.615,14.559l13.034-.964s1.379-6.234,2.779-8.505c1.546-2.5,5-3.979,6.885-7.345,1.273-2.279,4.627-6.211,3.557-7.257S438.26,418.1,437.127,418.118Z" fill="#ffb67e"/>
      <g id="Group_39" data-name="Group 39">
        <g id="Group_36" data-name="Group 36">
          <g id="Group_35" data-name="Group 35">
            <path id="Path_75" data-name="Path 75" d="M403.139,676l-14.266,2.662a21.222,21.222,0,0,1,1-5.05c.743-1.768,1.287-1.934,1.7-3.9,1.769-8.427-3.744-47.663-1.535-62.6-.4-29.844.211-59.249-4.3-71.979-4.846-13.688,21.733-16.019,24,0s-7.907,134.3-5.435,135.876c3.9,2.481,10.908,2.662,10.908,4.637S403.139,676,403.139,676Z" fill="#ffb67e"/>
            <path id="Path_76" data-name="Path 76" d="M420.728,680.067c-.881,3.344-24.613,2.647-29.217,2.647s-2.613-7.849-1.388-8.32,6.595,2.621,13.387,1.85c1.519-.173-2.122-3.428-2.034-4.857,2.66-1.461,5.039,1.759,6.394,2.341S421.832,675.878,420.728,680.067Z" fill="#84dbef"/>
            <path id="Path_77" data-name="Path 77" d="M420.319,678.739c-.881,3.344-24.611,2.645-29.217,2.645s-2.611-7.847-1.386-8.32c2.1,1.369,5.029,2.14,11.821,1.369,1.519-.171-1.628-3.286,1.033-4.748s3.537,2.133,4.893,2.715S421.422,674.549,420.319,678.739Z" fill="#063160"/>
          </g>
          <path id="Path_78" data-name="Path 78" d="M405.331,674.432a4.186,4.186,0,0,1,2.2-2.549" fill="none" stroke="#84dbef" stroke-linecap="round" stroke-linejoin="round" stroke-width="0.974"/>
          <path id="Path_79" data-name="Path 79" d="M408.342,675.19a4.4,4.4,0,0,1,2.35-2.374" fill="none" stroke="#84dbef" stroke-linecap="round" stroke-linejoin="round" stroke-width="0.974"/>
          <path id="Path_80" data-name="Path 80" d="M410.892,675.9a4.55,4.55,0,0,1,2.1-2.244" fill="none" stroke="#84dbef" stroke-linecap="round" stroke-linejoin="round" stroke-width="0.974"/>
        </g>
        <path id="Path_81" data-name="Path 81" d="M413.232,554.3c.7,27.641-3.007,73.845-7.256,104.316v.021q-.325,2.285-.653,4.441a33.648,33.648,0,0,1-16.692-2.633c-2.746-19.936-3.377-68.69-5.251-84.577-1.437-12.492-13.65-45.694-1.482-84.423l26.04,6.158,5.47,1.283.48.109-.872,18.283-.131,29.447C413.037,549.056,413.147,551.581,413.232,554.3Z" fill="#184580"/>
        <path id="Path_82" data-name="Path 82" d="M406.723,659.052c-1.071-.834-18.616-.208-18.913,0-.445.314.166,4.31.616,4.554.5.269,16.8.409,17.583-.021C406.712,663.2,407.794,659.885,406.723,659.052Z" fill="#1a60a0"/>
        <g id="Group_38" data-name="Group 38">
          <g id="Group_37" data-name="Group 37">
            <path id="Path_83" data-name="Path 83" d="M430.092,678.059l-14.264,2.66a21.2,21.2,0,0,1,.995-5.05c.743-1.768,1.289-1.932,1.7-3.9,1.769-8.427-3.744-47.663-1.535-62.6-.4-29.842.213-59.249-4.294-71.979-4.848-13.688,12.121-22.25,14.387-6.232,1.049,7.409,9.046,42.926,7.254,72.423-2.083,34.277-4.407,68.84-3.079,69.685,3.9,2.481,10.908,2.664,10.908,4.637S430.092,678.059,430.092,678.059Z" fill="#ffb67e"/>
            <path id="Path_84" data-name="Path 84" d="M447.681,682.122c-.881,3.342-24.611,2.645-29.217,2.645s-2.611-7.849-1.386-8.32,6.595,2.622,13.387,1.85c1.519-.171-2.122-3.428-2.036-4.856,2.662-1.463,5.041,1.757,6.394,2.341S448.784,677.93,447.681,682.122Z" fill="#84dbef"/>
            <path id="Path_85" data-name="Path 85" d="M447.273,680.793c-.881,3.342-24.613,2.645-29.217,2.645s-2.611-7.849-1.388-8.32c2.1,1.369,5.031,2.14,11.823,1.369,1.517-.173-1.63-3.288,1.032-4.748s3.537,2.131,4.893,2.715S448.377,676.6,447.273,680.793Z" fill="#033473"/>
          </g>
          <path id="Path_86" data-name="Path 86" d="M432.284,676.487a4.182,4.182,0,0,1,2.2-2.549" fill="none" stroke="#84dbef" stroke-linecap="round" stroke-linejoin="round" stroke-width="0.974"/>
          <path id="Path_87" data-name="Path 87" d="M435.294,677.243a4.412,4.412,0,0,1,2.352-2.374" fill="none" stroke="#84dbef" stroke-linecap="round" stroke-linejoin="round" stroke-width="0.974"/>
          <path id="Path_88" data-name="Path 88" d="M437.845,677.952a4.53,4.53,0,0,1,2.1-2.244" fill="none" stroke="#84dbef" stroke-linecap="round" stroke-linejoin="round" stroke-width="0.974"/>
        </g>
        <path id="Path_89" data-name="Path 89" d="M413.232,554.3c.7,27.641-3.007,73.845-7.256,104.316-2.4-26.531,3.155-62.169-7.681-111.409a50.014,50.014,0,0,1-.16-17.967S413.043,552.4,413.232,554.3Z" fill="#6fdef7"/>
        <path id="Path_90" data-name="Path 90" d="M432.278,663.08a12.6,12.6,0,0,0-5.339-1.285c-3.7-.152-7.6.588-11.766-.847-3.9-19.566-2.026-74.26-6.952-94.175-1.459-5.876-9.1-30.724-10.372-38.544-1.95-11.98-.174-25.9,1.9-36.781H429.6c5.665,13.036,5.577,28.619,6.339,42.527.088,1.7.175,3.482.24,5.354C437.529,572.909,436,632.739,432.278,663.08Z" fill="#184580"/>
        <path id="Path_91" data-name="Path 91" d="M432.278,663.08a12.6,12.6,0,0,0-5.339-1.285c-.2-11.294.37-83.139-.086-101.79-.306-11.97-.61-24.05-3.422-35.695-2.788-11.643-8.3-22.961-17.409-30.73l2.309-2.133H429.6c5.665,13.036,5.577,28.619,6.339,42.527.088,1.7.175,3.482.24,5.354C437.529,572.909,436,632.739,432.278,663.08Z" fill="#6fdef7"/>
        <path id="Path_92" data-name="Path 92" d="M433.514,660.813c-1.051-.746-18.293-.187-18.583,0-.437.282.164,3.87.606,4.088.493.242,16.509.368,17.277-.017C433.5,664.536,434.567,661.56,433.514,660.813Z" fill="#1a60a0"/>
      </g>
      <path id="Path_93" data-name="Path 93" d="M420.418,383.321c6.609,1.981,5.008,5.512.683,6.507" fill="#ffb67e"/>
      <path id="Path_94" data-name="Path 94" d="M436.663,520.04a27.526,27.526,0,0,1-8.867,6.825,40.507,40.507,0,0,1-16.337,3.919c-.281.023-.583.047-.862.047-.4,0-.768.023-1.164.023-17.64.23-35.187-7.286-35.049-8.554,1.677-14.942.887-56.088.977-68.575.244-33.609,12.893-39.36,21.575-40.928l7.447.37c15.151-4.82,29.954,26.239,29.511,28.521.279,2.029.326,7.4.372,14.572C434.36,473.9,434.29,502.539,436.663,520.04Z" fill="#f6cb4d"/>
      <path id="Path_95" data-name="Path 95" d="M436.663,520.04a27.526,27.526,0,0,1-8.867,6.825,46.385,46.385,0,0,1-16.337,3.919c-.281.023-.583.047-.862.047-.513.047-1.024.07-1.537.092a1.041,1.041,0,0,0,.372-.068c4.818-1.338,17.807-9.411,18.944-24.026.119-1.529-.628-47.314-1.186-61.219l7.075,10.652C434.36,473.9,434.29,502.539,436.663,520.04Z" fill="#f3a63f"/>
      <path id="Path_96" data-name="Path 96" d="M443.486,440.054l4.23,4.928s-4.064,21.977-6.347,17.095-5.048-15.922-5.048-15.922Z" fill="#f3a63f"/>
      <path id="Path_97" data-name="Path 97" d="M498.059,424.847c.544-1.507-6.93,3.7-9.331,5.228,5.4-4.3,8.939-8.176,8.389-9.016s-8.982,6.092-10.8,7.029c1.414-1.581,8.319-7.473,7.355-8.794-.462-.637-6.511,4.585-10.134,7.115,1.7-1.673,2.506-2.485,2.332-3.874-.3-2.4-8.984,8.476-11.871,11.594-1.139,1.233-20.264,8.2-22.216,8.474-2.3.329-15.715-14.021-15.715-14.021l-6.952,15.326c9.627,6.973,16.86,13.565,20.371,14.179,4.783.836,27.081-15.78,29.2-16.286,4.2-1,11.226-5.847,13.952-8.209,1.858-1.611,4.974-3.712,5.4-4.935s-5.351,2.244-8.4,4.108C492.965,430.462,497.515,426.356,498.059,424.847Z" fill="#ffb67e"/>
      <path id="Path_98" data-name="Path 98" d="M447.716,439.9c-13.946-17.061-28.589-25.843-40.755-28.29l13.623,32.758c5.38,7.232,12.219,14.235,21.19,18.286C440.175,452.346,445.452,440.933,447.716,439.9Z" fill="#f6cb4d"/>
      <path id="Path_99" data-name="Path 99" d="M397.576,412.779a65.437,65.437,0,0,1,.647-13.014c1.073-6.675,14.7-6.289,12.8.255a21.9,21.9,0,0,0,.558,12.788C411.674,416.825,398.7,419.923,397.576,412.779Z" fill="#ffb67e"/>
      <path id="Path_100" data-name="Path 100" d="M413.248,367.921c7.412,5.919,13.373,33.87,7.853,38.3-2.72,2.187-16.949,6.121-22.39,0" fill="#ffb67e"/>
      <path id="Path_101" data-name="Path 101" d="M422.259,366.419a6.145,6.145,0,0,0-4.327-.976c-.2.016-.4.064-.595.086-.07-.08-.152-.156-.226-.234a8.955,8.955,0,0,0,1.447-1.389c.856-1.048,1.464-2.6.69-3.712a3.355,3.355,0,0,0-2.892-1.065,12.257,12.257,0,0,0-5.179,1.272,3.386,3.386,0,0,0-1.437-2.672,4.4,4.4,0,0,0-2.393-.534,10.936,10.936,0,0,0-5.144,1.352c-.739-1.042-2.426-1.186-3.775-.962a16.5,16.5,0,0,0-6.63,2.713,4.252,4.252,0,0,0-2.447-.58,5.911,5.911,0,0,0-3.865,2.437,5.239,5.239,0,0,0-.7,1.079,10.668,10.668,0,0,0-1.907-.411,4.79,4.79,0,0,0-3.022.487,3.554,3.554,0,0,0-1.55,3.362,4.691,4.691,0,0,0,1.168,2.561,10.864,10.864,0,0,0-7.942,4.353c-1.862,2.838-.133,5.681.975,6.158a11.811,11.811,0,0,0-1.891,3.264,5.471,5.471,0,0,0-.154,4.133,5.069,5.069,0,0,0,2.972,2.454,8.411,8.411,0,0,0,.848.2,13.351,13.351,0,0,0-.856,2.5,2.916,2.916,0,0,0,.265,2.452,2.434,2.434,0,0,0,2.352.654,4.447,4.447,0,0,0,1.581-.666c-.624,4.657.764,6.11,3.321,5.638a13.039,13.039,0,0,0,.259,1.529,2.917,2.917,0,0,0,1.3,2.1,1.693,1.693,0,0,0,.735.15,5.966,5.966,0,0,0,1.08,2.974,2.225,2.225,0,0,0,3.2.251c.117-.09.218-.216.33-.321l.111.084a6.836,6.836,0,0,0,1.56,3.395,2.131,2.131,0,0,0,1.127.726,1.758,1.758,0,0,0,1.585-.812c.088-.115.15-.263.23-.391,2.106,1.215,3.933,2.1,5.105,2.719,6.893,3.648,8.759-5.6,12.612-12.377,4.824-8.488,4.924-10.813,1.979-20.121.111-.193.2-.39.3-.582.068,0,.138.006.207,0a7.333,7.333,0,0,0,5.394-2.563,3.967,3.967,0,0,0,.887-2.191,3.729,3.729,0,0,0-1.221-2.779,23.406,23.406,0,0,0,3.633-.991,3.848,3.848,0,0,0,1.412-.775C423.87,369.345,423.442,367.366,422.259,366.419Z" fill="#1b3760"/>
      <path id="Path_102" data-name="Path 102" d="M422.776,370.4a3.65,3.65,0,0,1-1.394.763,23.874,23.874,0,0,1-3.639,1,3.7,3.7,0,0,1,1.219,2.785,3.918,3.918,0,0,1-.893,2.176,7.238,7.238,0,0,1-5.382,2.569h-.218c-.109.2-.2.391-.3.588,2.941,9.292,2.855,11.622-1.983,20.109-3.836,6.791-5.71,16.041-12.595,12.383-1.176-.631-3.007-1.5-5.121-2.719a2.3,2.3,0,0,1-.218.391,1.717,1.717,0,0,1-1.589.8,2.1,2.1,0,0,1-1.135-.719,6.47,6.47,0,0,1-1.48-3.155c1.613.892,2.847,1.944,3.921,2.068,6.747.773,8.759-5.615,12.616-12.385,4.816-8.488,4.926-10.815,1.983-20.109.109-.2.2-.391.3-.588h.2a7.364,7.364,0,0,0,5.4-2.567,4.1,4.1,0,0,0,.9-2.2,3.777,3.777,0,0,0-1.221-2.764,23.612,23.612,0,0,0,3.617-1,3.733,3.733,0,0,0,1.416-.762,2.211,2.211,0,0,0,.632-1.611.284.284,0,0,1,.131-.021,6.081,6.081,0,0,1,4.315.978C423.45,367.358,423.866,369.339,422.776,370.4Z" fill="#1b3760" opacity="0.55"/>
      <path id="Path_103" data-name="Path 103" d="M417.807,365.465c-.152.021-.3.043-.48.064-.064-.086-.152-.152-.216-.24a6.141,6.141,0,0,0,.587-.522A2.546,2.546,0,0,1,417.807,365.465Z" fill="#1b3760"/>
      <path id="Path_104" data-name="Path 104" d="M413.412,395.147a5.643,5.643,0,0,0-2.026-3.5,2.084,2.084,0,0,0-2.51-.358,2.358,2.358,0,0,0-.64,1.2,12.64,12.64,0,0,0-.571,4.616,6.6,6.6,0,0,0,1.868,4.18,3.8,3.8,0,0,0,3.124,1.135c1.679-.267,1.587-1.367,1.739-3.058" fill="#ffb67e"/>
      <path id="Path_105" data-name="Path 105" d="M413.429,393.979a5.644,5.644,0,0,0-2.026-3.5c-.716-.573-2.326-1.206-3.056-.651-3.738,2.842.076,9.212,1.2,10.291a3.8,3.8,0,0,0,3.124,1.135c1.679-.267,1.587-1.367,1.739-3.058" fill="#ffb67e"/>
    </g>
  </g>
</svg>
